<?xml version="1.0" encoding="UTF-8"?> <svg xmlns="http://www.w3.org/2000/svg" width="675" height="206" viewBox="0 0 675 206" fill="none"> <path d="M106.074 205.984C94.8613 205.984 83.6483 205.984 72.4354 205.984C68.4587 205.984 64.5472 205.275 60.8313 203.73C55.942 201.733 51.9002 198.641 48.6406 194.583C37.6232 180.864 26.5407 167.209 15.4581 153.49C12.5245 149.883 9.59091 146.211 6.65729 142.604C1.83315 136.55 -0.448548 129.722 0.0729833 122.057C0.268558 119.159 0.985663 116.26 1.63758 113.426C6.39653 93.1372 11.0903 72.9124 15.7189 52.752C17.9354 43.1548 23.4767 36.1985 32.4079 31.9475C52.6173 22.3503 72.7614 12.6888 92.9707 3.09169C101.706 -1.03056 110.507 -1.03056 119.243 3.09169C139.452 12.6888 159.727 22.2859 179.936 31.9475C188.737 36.1341 194.278 43.0904 196.43 52.4943C201.449 74.0717 206.404 95.6492 211.358 117.227C213.445 126.437 211.619 134.875 205.687 142.282C191.605 159.866 177.459 177.386 163.247 194.841C157.249 202.184 149.296 205.855 139.778 205.919C128.565 206.048 117.352 205.984 106.074 205.984ZM106.074 187.241C114.288 187.241 122.568 187.241 130.782 187.241C132.542 187.241 134.302 187.112 136.062 186.79C143.624 185.437 149.752 181.766 154.511 175.84C158.553 170.816 162.595 165.856 166.572 160.832C172.7 153.232 178.893 145.632 185.021 137.967C190.953 130.56 193.04 122.186 190.953 112.976C187.433 97.1306 183.717 81.2857 180.001 65.4408C177.785 56.0369 172.309 49.145 163.508 44.8939C148.905 37.8732 134.237 30.9169 119.569 23.9606C110.572 19.7095 101.576 19.7095 92.5796 23.9606C78.0419 30.9169 63.439 37.8732 48.8362 44.8295C39.9701 49.0806 34.4289 55.9725 32.2123 65.4408C28.8876 79.7399 25.5628 94.0389 22.3032 108.338C21.6513 111.172 20.9342 113.942 20.6735 116.84C19.9564 124.891 22.3684 132.041 27.5186 138.353C37.4929 150.656 47.4671 162.958 57.3762 175.325C63.7649 183.312 72.0443 187.241 82.3445 187.241C90.2327 187.241 98.1208 187.241 106.074 187.241Z" fill="#372579"></path> <path d="M292.391 119.867C292.782 119.159 293.043 118.644 293.304 118.193C302.235 99.8358 311.232 81.4789 320.163 63.122C320.489 62.4135 320.815 61.705 321.271 61.0609C323.357 57.9692 326.943 56.681 330.594 57.6471C334.114 58.6133 336.461 61.5762 336.656 65.2475C336.656 65.6984 336.656 66.1493 336.656 66.6646C336.656 89.9811 336.656 113.362 336.656 136.678C336.656 137.645 336.591 138.675 336.396 139.577C335.548 143.57 331.506 146.469 327.464 146.018C323.097 145.567 319.902 142.218 319.837 137.967C319.772 129.207 319.837 120.447 319.837 111.687C319.837 107.629 319.837 103.572 319.837 99.4494C319.837 98.9341 319.837 98.4188 319.837 97.7747C319.055 98.0324 318.989 98.6765 318.729 99.1273C313.448 109.819 308.102 120.447 302.822 131.139C301.714 133.329 300.671 135.584 299.497 137.773C297.541 141.574 293.369 143.248 289.262 141.96C286.915 141.252 285.351 139.641 284.308 137.516C282.156 133.265 280.005 129.014 277.854 124.827C273.681 116.582 269.509 108.338 265.337 100.093C265.076 99.6426 264.881 99.1917 264.555 98.612C263.968 99.1273 264.163 99.707 264.163 100.222C264.163 106.792 264.163 113.426 264.163 119.996C264.163 125.536 264.163 131.139 264.163 136.678C264.163 137.773 264.098 138.933 263.772 140.028C262.664 143.828 258.818 146.34 254.906 145.889C250.669 145.374 247.605 142.218 247.409 138.096C247.409 137.58 247.409 137.065 247.409 136.55C247.409 113.233 247.409 89.8523 247.409 66.5357C247.409 65.4408 247.409 64.3458 247.67 63.3152C248.452 60.2235 250.538 58.1624 253.733 57.4539C256.862 56.7454 259.796 57.4539 261.947 59.9659C262.664 60.8032 263.186 61.705 263.707 62.6711C272.899 81.0281 282.091 99.385 291.283 117.806C291.674 118.45 292 119.03 292.391 119.867Z" fill="#372579"></path> <path d="M657.789 86.052C657.398 86.5029 657.007 86.9538 656.616 87.4691C641.948 105.633 627.28 123.796 612.677 142.025C611.243 143.764 609.548 145.052 607.331 145.567C602.051 146.726 597.031 142.926 596.901 137.516C596.901 137.194 596.901 136.872 596.901 136.614C596.901 113.169 596.901 89.7234 596.901 66.2781C596.901 65.1831 597.031 64.0238 597.357 62.9288C598.53 59.1286 602.703 56.681 606.744 57.3251C610.917 57.9692 613.655 60.9965 613.72 65.1831C613.785 70.9156 613.72 76.6482 613.72 82.3163C613.72 93.3304 613.72 104.345 613.72 115.423C613.72 116.003 613.72 116.518 613.72 117.098C613.85 117.162 613.916 117.227 614.046 117.227C614.437 116.776 614.828 116.325 615.219 115.874C624.803 104.023 634.451 92.1066 644.034 80.2551C649.119 73.9429 654.269 67.6307 659.354 61.3185C659.55 61.0609 659.81 60.7388 660.071 60.4812C662.679 57.3251 666.46 56.8098 669.654 57.9048C672.979 58.9998 675 62.027 675 65.8272C675 86.2453 675 106.663 675 127.017C675 130.624 675 134.231 675 137.838C674.935 141.187 672.914 144.086 669.85 145.309C666.525 146.598 662.874 145.825 660.462 143.313C659.028 141.831 658.311 140.028 658.181 138.031C658.181 137.451 658.181 136.872 658.181 136.356C658.181 120.254 658.181 104.216 658.181 88.1132C658.181 87.5335 658.181 86.8894 658.181 86.3097C658.05 86.1165 657.92 86.1165 657.789 86.052Z" fill="#372579"></path> <path d="M505.893 101.446C506.154 86.5029 511.761 74.0717 523.821 64.8611C531.318 59.1286 539.858 56.2301 549.376 56.1013C554.135 56.0369 558.829 56.3589 563.457 57.7115C569.39 59.3862 574.475 62.5423 579.103 66.4713C581.646 68.5969 582.102 71.4953 581.255 74.5226C580.407 77.5499 578.125 79.1601 575.127 79.8687C572.454 80.4484 570.107 79.6754 567.956 78.0652C566.521 76.9702 565.022 75.8752 563.523 74.9091C560.459 72.9124 557.069 72.075 553.483 71.8174C547.094 71.3665 541.162 72.5259 535.751 76.1329C528.971 80.706 524.669 87.0182 523.104 94.9407C521.344 103.765 522.778 112.074 528.058 119.545C532.491 125.729 538.489 129.722 546.182 130.882C551.201 131.654 556.156 131.075 560.85 129.078C563.457 127.919 565.935 126.502 568.282 124.827C569.911 123.668 571.737 122.895 573.823 123.024C577.604 123.152 580.668 125.858 581.124 129.593C581.515 132.943 580.407 135.648 577.669 137.709C569.129 144.15 559.416 147.564 548.659 146.92C529.753 145.825 516.65 136.356 509.218 119.223C506.806 113.555 505.893 107.565 505.893 101.446Z" fill="#372579"></path> <path d="M468.93 105.246C469.321 104.538 469.582 104.023 469.842 103.572C476.492 90.0455 483.207 76.5193 489.856 63.0576C490.313 62.0914 490.834 61.1253 491.486 60.2235C493.442 57.7115 496.049 56.681 499.179 57.4539C500.157 57.7115 501.2 58.098 502.047 58.6133C505.241 60.3524 506.48 63.4441 505.372 66.9222C505.111 67.6951 504.785 68.4681 504.459 69.1766C494.746 88.9505 485.032 108.724 475.253 128.498C473.102 132.878 470.429 136.936 466.909 140.35C463.649 143.506 459.868 145.825 455.24 146.533C449.698 147.435 444.679 146.211 440.115 142.991C436.986 140.736 436.008 136.807 437.638 133.458C439.333 129.98 442.853 128.176 446.7 129.014C447.743 129.271 448.786 129.658 449.763 130.109C451.458 131.01 453.088 130.817 454.588 129.787C456.869 128.305 458.434 126.18 459.738 123.861C461.237 121.284 461.237 121.284 459.673 118.772C449.698 102.605 439.724 86.4385 429.75 70.2071C429.098 69.1122 428.511 67.9528 428.12 66.729C427.403 64.4746 427.99 62.4135 429.554 60.6744C431.249 58.7421 433.4 57.5183 436.008 57.1963C438.094 56.9386 439.985 57.5827 441.419 59.0642C442.332 59.9659 443.114 61.0609 443.766 62.1559C451.784 75.9396 459.803 89.7234 467.822 103.507C468.148 104.023 468.473 104.538 468.93 105.246Z" fill="#372579"></path> <path d="M392.069 73.4276C392.069 74.265 392.069 74.9735 392.069 75.6176C392.069 95.8424 392.069 116.003 392.069 136.228C392.069 136.872 392.069 137.451 392.069 138.096C391.873 142.604 388.223 146.147 383.594 146.082C378.966 146.082 375.38 142.54 375.25 137.967C375.25 136.936 375.25 135.906 375.25 134.875C375.25 115.101 375.25 95.3271 375.25 75.5532C375.25 74.9091 375.25 74.265 375.25 73.4276C374.467 73.4276 373.816 73.4276 373.229 73.4276C367.296 73.4276 361.364 73.4276 355.366 73.4276C354.388 73.4276 353.345 73.3632 352.433 73.1056C348.652 72.1394 346.37 68.5325 346.826 64.4102C347.217 60.61 350.412 57.7115 354.258 57.5183C354.714 57.5183 355.171 57.5183 355.692 57.5183C374.533 57.5183 393.308 57.5183 412.148 57.5183C413.061 57.5183 414.039 57.5183 414.951 57.7115C418.928 58.6133 421.47 62.2203 421.014 66.2137C420.558 70.4648 417.429 73.3632 413.061 73.4276C409.149 73.4921 405.238 73.4276 401.326 73.4276C398.849 73.4276 396.307 73.4276 393.829 73.4276C393.308 73.3632 392.786 73.3632 392.069 73.4276Z" fill="#372579"></path> </svg> 